<svg xmlns="http://www.w3.org/2000/svg" width="1200" height="675" viewBox="0 0 1200 675" role="img" aria-labelledby="title desc">
  <title id="title">QRoPE deterministic validation pipeline</title>
  <desc id="desc">A publication diagram showing a frozen packet moving through circuit execution, raw counts, offline verifier, and bounded publication result.</desc>
  <defs>
    <linearGradient id="bg" x1="0" y1="0" x2="1" y2="1">
      <stop offset="0" stop-color="#fbf7f0"/>
      <stop offset="0.55" stop-color="#f3faf7"/>
      <stop offset="1" stop-color="#eef6ff"/>
    </linearGradient>
    <filter id="shadow" x="-20%" y="-20%" width="140%" height="140%">
      <feDropShadow dx="0" dy="12" stdDeviation="14" flood-color="#111827" flood-opacity="0.14"/>
    </filter>
    <marker id="arrow" markerWidth="12" markerHeight="12" refX="10" refY="6" orient="auto">
      <path d="M2,2 L10,6 L2,10 Z" fill="#334155"/>
    </marker>
    <style>
      .title { font: 700 38px Georgia, serif; fill: #111827; }
      .subtitle { font: 500 18px Georgia, serif; fill: #475569; }
      .box { fill: #ffffff; stroke: #cbd5e1; stroke-width: 2; rx: 28; filter: url(#shadow); }
      .num { font: 700 22px Georgia, serif; fill: #ffffff; }
      .label { font: 700 21px Georgia, serif; fill: #111827; }
      .small { font: 500 15px Georgia, serif; fill: #475569; }
      .tiny { font: 500 13px Georgia, serif; fill: #64748b; }
      .line { stroke: #334155; stroke-width: 3; fill: none; marker-end: url(#arrow); }
      .tag { fill: #0f766e; }
    </style>
  </defs>
  <rect width="1200" height="675" fill="url(#bg)"/>
  <path d="M0 560 C180 505, 300 640, 495 580 S840 510, 1200 595 L1200 675 L0 675 Z" fill="#0f766e" opacity="0.08"/>
  <text x="70" y="78" class="title">Deterministic validation lane</text>
  <text x="70" y="112" class="subtitle">Evidence path: fixed inputs, raw counts, backend metadata, offline recomputation, bounded result.</text>

  <g transform="translate(65,220)">
    <rect width="190" height="215" class="box"/>
    <circle cx="42" cy="44" r="22" class="tag"/>
    <text x="35" y="52" class="num">1</text>
    <text x="28" y="92" class="label">Frozen packet</text>
    <text x="28" y="128" class="small">16 rows</text>
    <text x="28" y="154" class="small">fixed inputs</text>
    <text x="28" y="180" class="tiny">packet id locked</text>
  </g>
  <path d="M267 328 L352 328" class="line"/>

  <g transform="translate(365,220)">
    <rect width="190" height="215" class="box"/>
    <circle cx="42" cy="44" r="22" fill="#0e7490"/>
    <text x="35" y="52" class="num">2</text>
    <text x="28" y="92" class="label">Circuit run</text>
    <text x="28" y="128" class="small">backend metadata</text>
    <text x="28" y="154" class="small">4096 shots</text>
    <text x="28" y="180" class="tiny">real noisy hardware</text>
  </g>
  <path d="M567 328 L652 328" class="line"/>

  <g transform="translate(665,220)">
    <rect width="190" height="215" class="box"/>
    <circle cx="42" cy="44" r="22" fill="#b45309"/>
    <text x="35" y="52" class="num">3</text>
    <text x="28" y="92" class="label">Raw counts</text>
    <text x="28" y="128" class="small">bitstrings</text>
    <text x="28" y="154" class="small">ZZ expectation</text>
    <text x="28" y="180" class="tiny">not narrative-only</text>
  </g>
  <path d="M867 328 L952 328" class="line"/>

  <g transform="translate(965,220)">
    <rect width="190" height="215" class="box"/>
    <circle cx="42" cy="44" r="22" fill="#334155"/>
    <text x="35" y="52" class="num">4</text>
    <text x="28" y="92" class="label">Offline verifier</text>
    <text x="28" y="128" class="small">recompute metrics</text>
    <text x="28" y="154" class="small">bounded status</text>
    <text x="28" y="180" class="tiny">hardware-positive only in scope</text>
  </g>

  <rect x="270" y="500" width="660" height="76" rx="22" fill="#ffffff" stroke="#cbd5e1" stroke-width="2"/>
  <text x="305" y="532" class="label">Publication rule</text>
  <text x="305" y="559" class="small">Publish the evidence lane, not a broad quantum-advantage claim.</text>
</svg>
