<svg xmlns="http://www.w3.org/2000/svg" width="1200" height="675" viewBox="0 0 1200 675" role="img" aria-labelledby="title desc">
  <title id="title">PhaseWrap-RoPE method schematic</title>
  <desc id="desc">A clean schematic showing residuals mapped into mod-8 and mod-12 margins and combined into a PhaseWrap-RoPE score.</desc>
  <defs>
    <marker id="arrow" markerWidth="10" markerHeight="10" refX="9" refY="5" orient="auto">
      <path d="M1,1 L9,5 L1,9 Z" fill="#334155"/>
    </marker>
    <style>
      .title { font: 700 34px Arial, sans-serif; fill: #111827; }
      .subtitle { font: 400 17px Arial, sans-serif; fill: #475569; }
      .box { fill: #ffffff; stroke: #cbd5e1; stroke-width: 2; rx: 10; }
      .band8 { fill: #e6f4f1; stroke: #0f766e; stroke-width: 2; rx: 10; }
      .band12 { fill: #fff3e0; stroke: #b45309; stroke-width: 2; rx: 10; }
      .score { fill: #f8fafc; stroke: #334155; stroke-width: 2; rx: 10; }
      .label { font: 700 21px Arial, sans-serif; fill: #111827; }
      .body { font: 400 16px Arial, sans-serif; fill: #475569; }
      .mono { font: 700 20px Consolas, monospace; fill: #111827; }
      .small { font: 400 13px Arial, sans-serif; fill: #64748b; }
      .arrow { stroke: #334155; stroke-width: 2.5; fill: none; marker-end: url(#arrow); }
    </style>
  </defs>

  <rect width="1200" height="675" fill="#ffffff"/>
  <text x="70" y="76" class="title">PhaseWrap-RoPE scoring</text>
  <text x="70" y="108" class="subtitle">The method converts positional residuals into two modular margins and multiplies them into a bounded cross-band score.</text>

  <rect x="70" y="220" width="230" height="190" class="box"/>
  <text x="100" y="272" class="label">Residual input</text>
  <text x="100" y="310" class="body">Integer offset pair</text>
  <text x="100" y="354" class="mono">delta_a, delta_b</text>

  <path d="M315 315 L388 315" class="arrow"/>

  <rect x="408" y="160" width="324" height="160" class="band8"/>
  <text x="440" y="212" class="label">mod-8 margin</text>
  <text x="440" y="248" class="body">One-step boundary</text>
  <text x="440" y="284" class="mono">m8 = cos(r8)</text>
  <text x="440" y="310" class="mono">     - cos(pi/4)</text>

  <rect x="408" y="350" width="324" height="160" class="band12"/>
  <text x="440" y="402" class="label">mod-12 margin</text>
  <text x="440" y="438" class="body">One-step boundary</text>
  <text x="440" y="474" class="mono">m12 = cos(r12)</text>
  <text x="440" y="500" class="mono">      - cos(pi/6)</text>

  <path d="M742 238 C800 238, 810 315, 870 315" class="arrow"/>
  <path d="M742 430 C800 430, 810 315, 870 315" class="arrow"/>

  <rect x="890" y="220" width="240" height="190" class="score"/>
  <text x="920" y="272" class="label">Cross-band score</text>
  <text x="920" y="314" class="mono">score = m8 * m12</text>
  <text x="920" y="356" class="body">Normalized into packet labels</text>

  <line x1="70" y1="585" x2="1130" y2="585" stroke="#e2e8f0" stroke-width="2"/>
  <text x="70" y="616" class="small">Figure 1. PhaseWrap-RoPE method schematic. The formula block in the paper is normative.</text>
</svg>
