<svg xmlns="http://www.w3.org/2000/svg" width="1200" height="675" viewBox="0 0 1200 675" role="img" aria-labelledby="title desc">
  <title id="title">QRoPE Stage 4 witness versus control metrics</title>
  <desc id="desc">A publication chart comparing witness and control MAE and rank correlation for the bounded Stage 4 hardware packet.</desc>
  <defs>
    <linearGradient id="bg" x1="0" y1="0" x2="1" y2="1">
      <stop offset="0" stop-color="#f8fafc"/>
      <stop offset="1" stop-color="#fff7ed"/>
    </linearGradient>
    <filter id="shadow" x="-20%" y="-20%" width="140%" height="140%">
      <feDropShadow dx="0" dy="12" stdDeviation="14" flood-color="#0f172a" flood-opacity="0.13"/>
    </filter>
    <style>
      .title { font: 700 36px Georgia, serif; fill: #0f172a; }
      .subtitle { font: 500 17px Georgia, serif; fill: #475569; }
      .panel { fill: #ffffff; stroke: #cbd5e1; stroke-width: 2; rx: 26; filter: url(#shadow); }
      .axis { stroke: #475569; stroke-width: 2; }
      .grid { stroke: #cbd5e1; stroke-width: 1; stroke-dasharray: 5 7; }
      .label { font: 700 20px Georgia, serif; fill: #0f172a; }
      .small { font: 500 14px Georgia, serif; fill: #475569; }
      .tiny { font: 500 12px Georgia, serif; fill: #64748b; }
      .value { font: 700 17px Consolas, monospace; fill: #0f172a; }
      .witness { fill: #0f766e; }
      .control { fill: #b45309; }
    </style>
  </defs>
  <rect width="1200" height="675" fill="url(#bg)"/>
  <circle cx="1125" cy="95" r="190" fill="#0f766e" opacity="0.08"/>
  <circle cx="60" cy="650" r="230" fill="#f59e0b" opacity="0.10"/>
  <text x="68" y="76" class="title">Stage 4 bounded hardware result</text>
  <text x="68" y="108" class="subtitle">Frozen packet qrope-hardware-73c61893576297ff, backend ibm_fez, 16 rows, 4096 shots per row.</text>

  <rect x="70" y="160" width="500" height="390" class="panel"/>
  <text x="105" y="210" class="label">Mean absolute error</text>
  <text x="105" y="236" class="small">Lower is better</text>
  <line x1="135" y1="480" x2="515" y2="480" class="axis"/>
  <line x1="135" y1="480" x2="135" y2="270" class="axis"/>
  <line x1="135" y1="410" x2="515" y2="410" class="grid"/>
  <line x1="135" y1="340" x2="515" y2="340" class="grid"/>
  <text x="105" y="484" class="tiny">0.00</text>
  <text x="103" y="414" class="tiny">0.10</text>
  <text x="103" y="344" class="tiny">0.20</text>
  <rect x="215" y="467" width="90" height="13" rx="5" class="witness"/>
  <rect x="375" y="328" width="90" height="152" rx="5" class="control"/>
  <text x="205" y="508" class="small">Witness</text>
  <text x="374" y="508" class="small">Control</text>
  <text x="206" y="454" class="value">0.018382</text>
  <text x="366" y="315" class="value">0.217262</text>

  <rect x="630" y="160" width="500" height="390" class="panel"/>
  <text x="665" y="210" class="label">Rank correlation</text>
  <text x="665" y="236" class="small">Higher is better</text>
  <line x1="695" y1="480" x2="1075" y2="480" class="axis"/>
  <line x1="695" y1="480" x2="695" y2="270" class="axis"/>
  <line x1="695" y1="409" x2="1075" y2="409" class="grid"/>
  <line x1="695" y1="339" x2="1075" y2="339" class="grid"/>
  <line x1="695" y1="444" x2="1075" y2="444" stroke="#94a3b8" stroke-width="2"/>
  <text x="652" y="484" class="tiny">-0.25</text>
  <text x="665" y="448" class="tiny">0.00</text>
  <text x="665" y="413" class="tiny">0.50</text>
  <text x="665" y="343" class="tiny">1.00</text>
  <rect x="775" y="321" width="90" height="123" rx="5" class="witness"/>
  <rect x="935" y="444" width="90" height="25" rx="5" class="control"/>
  <text x="765" y="508" class="small">Witness</text>
  <text x="934" y="508" class="small">Control</text>
  <text x="765" y="307" class="value">0.876558</text>
  <text x="925" y="492" class="value">-0.176940</text>

  <rect x="270" y="585" width="660" height="54" rx="18" fill="#ffffff" stroke="#cbd5e1" stroke-width="2"/>
  <text x="302" y="618" class="small">Interpretation: hardware-positive for this frozen packet/backend/date/calibration context only.</text>
</svg>
