<svg xmlns="http://www.w3.org/2000/svg" width="1400" height="760" viewBox="0 0 1400 760" role="img" aria-labelledby="title desc">
  <title id="title">QRoPE Stage 4 replication lane status</title>
  <desc id="desc">A publication status visual showing completed product-state and entangling CX hardware runs across IBM Kingston, IBM Marrakesh, IBM Fez, and IonQ QPU.</desc>
  <defs>
    <linearGradient id="bg" x1="0" y1="0" x2="1" y2="1">
      <stop offset="0" stop-color="#f8fafc"/>
      <stop offset="1" stop-color="#fef3c7"/>
    </linearGradient>
    <filter id="shadow" x="-20%" y="-20%" width="140%" height="140%">
      <feDropShadow dx="0" dy="12" stdDeviation="15" flood-color="#0f172a" flood-opacity="0.14"/>
    </filter>
    <style>
      .title { font: 700 36px Georgia, serif; fill: #0f172a; }
      .subtitle { font: 500 17px Georgia, serif; fill: #475569; }
      .panel { fill: #ffffff; stroke: #cbd5e1; stroke-width: 2; rx: 24; filter: url(#shadow); }
      .label { font: 700 20px Georgia, serif; fill: #0f172a; }
      .small { font: 500 14px Georgia, serif; fill: #475569; }
      .tiny { font: 500 12px Georgia, serif; fill: #64748b; }
      .good { fill: #0f766e; }
      .good2 { fill: #0369a1; }
      .gold { fill: #b45309; }
      .line { stroke: #94a3b8; stroke-width: 3; }
      .track { stroke: #cbd5e1; stroke-width: 12; stroke-linecap: round; }
      .node { fill: #ffffff; stroke-width: 4; }
      .complete { stroke: #0f766e; }
      .complete2 { stroke: #0369a1; }
      .complete3 { stroke: #b45309; }
      .value { font: 700 15px Consolas, monospace; fill: #0f172a; }
    </style>
  </defs>
  <rect width="1400" height="760" fill="url(#bg)"/>
  <circle cx="1260" cy="90" r="220" fill="#0f766e" opacity="0.07"/>
  <circle cx="110" cy="690" r="260" fill="#f59e0b" opacity="0.12"/>

  <text x="70" y="76" class="title">Stage 4 replication lane status</text>
  <text x="70" y="108" class="subtitle">Completed product-state and entangling CX hardware runs on IBM Kingston, IBM Marrakesh, IBM Fez, and IonQ QPU.</text>

  <rect x="70" y="150" width="1260" height="190" class="panel"/>
  <text x="104" y="200" class="label">Lane completion</text>
  <text x="104" y="226" class="small">All four discovered hardware targets completed successfully. IBM used 4096 shots; IonQ QPU completed at 1024 shots.</text>

  <line x1="180" y1="262" x2="1220" y2="262" class="track"/>
  <line x1="180" y1="262" x2="1220" y2="262" class="line"/>

  <circle cx="220" cy="262" r="24" class="node complete"/>
  <circle cx="540" cy="262" r="24" class="node complete2"/>
  <circle cx="860" cy="262" r="24" class="node complete"/>
  <circle cx="1180" cy="262" r="24" class="node complete3"/>

  <text x="180" y="308" class="small">IBM Kingston</text>
  <text x="500" y="308" class="small">IBM Marrakesh</text>
  <text x="836" y="308" class="small">IBM Fez</text>
  <text x="1146" y="308" class="small">IonQ QPU</text>

  <text x="198" y="269" class="value">PASS</text>
  <text x="518" y="269" class="value">PASS</text>
  <text x="838" y="269" class="value">PASS</text>
  <text x="1154" y="269" class="value">PASS</text>

  <rect x="70" y="370" width="610" height="330" class="panel"/>
  <text x="104" y="420" class="label">Product-state witness</text>
  <text x="104" y="446" class="small">`two_qubit_zz_expectation_phase_wrap_v1`</text>

  <text x="104" y="488" class="tiny">All backends</text>
  <rect x="104" y="506" width="500" height="26" rx="13" fill="#e2e8f0"/>
  <rect x="104" y="506" width="500" height="26" rx="13" class="good"/>
  <text x="624" y="524" class="tiny" text-anchor="end">completed</text>

  <text x="104" y="570" class="small">Best witness MAE</text>
  <text x="104" y="598" class="value">0.011859</text>
  <text x="300" y="570" class="small">Best witness rank corr</text>
  <text x="300" y="598" class="value">0.940875</text>
  <text x="104" y="642" class="small">Worst control rank corr</text>
  <text x="104" y="670" class="value">-0.184302</text>
  <text x="300" y="642" class="small">Shots</text>
  <text x="300" y="670" class="value">4096 IBM / 1024 IonQ</text>

  <rect x="720" y="370" width="610" height="330" class="panel"/>
  <text x="754" y="420" class="label">Entangling CX witness</text>
  <text x="754" y="446" class="small">`two_qubit_cx_parity_phase_wrap_v2`</text>

  <text x="754" y="488" class="tiny">All backends</text>
  <rect x="754" y="506" width="500" height="26" rx="13" fill="#e2e8f0"/>
  <rect x="754" y="506" width="500" height="26" rx="13" class="gold"/>
  <text x="1274" y="524" class="tiny" text-anchor="end">completed</text>

  <text x="754" y="570" class="small">Best witness MAE</text>
  <text x="754" y="598" class="value">0.015108</text>
  <text x="950" y="570" class="small">Best witness rank corr</text>
  <text x="950" y="598" class="value">0.981446</text>
  <text x="754" y="642" class="small">Worst control rank corr</text>
  <text x="754" y="670" class="value">-0.184302</text>
  <text x="950" y="642" class="small">Shots</text>
  <text x="950" y="670" class="value">4096 IBM / 1024 IonQ</text>

  <rect x="420" y="716" width="560" height="32" rx="12" fill="#ffffff" stroke="#cbd5e1" stroke-width="2"/>
  <text x="700" y="737" class="small" text-anchor="middle">Interpretation: the replication lane is now complete; the old pending-state framing is obsolete.</text>
</svg>
